<svg xmlns="http://www.w3.org/2000/svg" viewBox="0 0 16 16" id="Refund-Dollar-Fill--Streamline-Mingcute-Fill" height="16" width="16"><desc>Refund Dollar Fill Streamline Icon: https://streamlinehq.com</desc><g fill="none" fill-rule="nonzero"><path d="M16 0v16H0V0zM8.395999999999999 15.505333333333333l-0.008 0.0013333333333333333 -0.047333333333333324 0.023333333333333334 -0.013333333333333332 0.0026666666666666666 -0.009333333333333332 -0.0026666666666666666 -0.047333333333333324 -0.023999999999999997c-0.006666666666666666 -0.002 -0.012666666666666666 0 -0.016 0.004l-0.0026666666666666666 0.006666666666666666 -0.011333333333333334 0.2853333333333333 0.003333333333333333 0.013333333333333332 0.006666666666666666 0.008666666666666666 0.06933333333333333 0.049333333333333326 0.009999999999999998 0.0026666666666666666 0.008 -0.0026666666666666666 0.06933333333333333 -0.049333333333333326 0.008 -0.010666666666666666 0.0026666666666666666 -0.011333333333333334 -0.011333333333333334 -0.2846666666666666c-0.0013333333333333333 -0.006666666666666666 -0.005999999999999999 -0.011333333333333334 -0.010666666666666666 -0.011999999999999999m0.176 -0.07533333333333334 -0.009333333333333332 0.0013333333333333333 -0.12266666666666666 0.062 -0.006666666666666666 0.006666666666666666 -0.002 0.007333333333333332 0.011999999999999999 0.2866666666666666 0.003333333333333333 0.008 0.005333333333333333 0.005333333333333333 0.134 0.06133333333333333c0.008 0.0026666666666666666 0.015333333333333332 0 0.019333333333333334 -0.005333333333333333l0.0026666666666666666 -0.009333333333333332 -0.02266666666666667 -0.4093333333333333c-0.002 -0.008 -0.006666666666666666 -0.013333333333333332 -0.013333333333333332 -0.014666666666666665m-0.4766666666666666 0.0013333333333333333a0.015333333333333332 0.015333333333333332 0 0 0 -0.018 0.004l-0.004 0.009333333333333332 -0.02266666666666667 0.4093333333333333c0 0.008 0.004666666666666666 0.013333333333333332 0.011333333333333334 0.016l0.009999999999999998 -0.0013333333333333333 0.134 -0.062 0.006666666666666666 -0.005333333333333333 0.002 -0.007333333333333332 0.011999999999999999 -0.2866666666666666 -0.002 -0.008 -0.006666666666666666 -0.006666666666666666z" stroke-width="0.6667"></path><path fill="#bcd742" d="M14.761333333333333 6.188c1 3.7346666666666666 -1.2153333333333332 7.573333333333332 -4.949999999999999 8.573333333333332 -3.2186666666666666 0.8626666666666667 -6.513333333333333 -0.6646666666666666 -8.003333333333334 -3.493333333333333a1 1 0 1 1 1.7699999999999998 -0.9319999999999999 5 5 0 1 0 -0.030666666666666665 -4.611333333333333l0.06666666666666667 -0.015333333333333332c1.1506666666666665 -0.25666666666666665 1.806 1.2673333333333332 0.828 1.9259999999999997L2.66 8.835999999999999c-0.6953333333333332 0.4686666666666666 -1.6679999999999997 -0.014666666666666665 -1.6613333333333333 -0.8906666666666667a7.002 7.002 0 0 1 5.189333333333333 -6.706666666666667c3.7346666666666666 -1.0006666666666666 7.573333333333332 1.2153333333333332 8.573333333333332 4.949333333333334M8 4a0.6666666666666666 0.6666666666666666 0 0 1 0.6666666666666666 0.6666666666666666v0.6666666666666666h1.3333333333333333a0.6666666666666666 0.6666666666666666 0 1 1 0 1.3333333333333333h-3.333333333333333a0.3333333333333333 0.3333333333333333 0 1 0 0 0.6666666666666666h2.6666666666666665a1.6666666666666665 1.6666666666666665 0 0 1 0 3.333333333333333h-0.6666666666666666v0.6666666666666666a0.6666666666666666 0.6666666666666666 0 1 1 -1.3333333333333333 0v-0.6666666666666666H6a0.6666666666666666 0.6666666666666666 0 1 1 0 -1.3333333333333333h3.333333333333333a0.3333333333333333 0.3333333333333333 0 0 0 0 -0.6666666666666666h-2.6666666666666665a1.6666666666666665 1.6666666666666665 0 0 1 0 -3.333333333333333h0.6666666666666666V4.666666666666666a0.6666666666666666 0.6666666666666666 0 0 1 0.6666666666666666 -0.6666666666666666" stroke-width="0.6667"></path></g></svg>