<?xml version="1.0" encoding="utf-8"?>
<!-- Generator: Adobe Illustrator 24.3.0, SVG Export Plug-In . SVG Version: 6.00 Build 0)  -->
<svg version="1.1" id="katman_1" xmlns="http://www.w3.org/2000/svg" xmlns:xlink="http://www.w3.org/1999/xlink" x="0px" y="0px"
	 viewBox="0 0 1920 1080" style="enable-background:new 0 0 1920 1080;" xml:space="preserve">
<style type="text/css">
	.st0{fill:#263527;}
	.st1{fill:#1F211F;}
	.st2{fill:#73C97D;}
	.st3{fill:#EFFFA1;stroke:#393544;stroke-width:19.3666;stroke-linecap:round;stroke-linejoin:round;}
	.st4{fill:#BFD944;stroke:#393544;stroke-width:19.3666;stroke-linecap:round;stroke-linejoin:round;}
	.st5{fill:none;stroke:#393544;stroke-width:19.3666;stroke-linecap:round;stroke-linejoin:round;}
	.st6{fill:#B5DD66;}
	.st7{fill:#3E7C3B;}
</style>
<g>
	<rect x="6.08" y="6.08" class="st0" width="1907.84" height="1067.84"/>
	<path class="st1" d="M1907.84,12.16v1055.67H12.16V12.16H1907.84 M1920,0H0v1080h1920V0L1920,0z"/>
</g>
<g>
	<path class="st2" d="M688.12,854.5c-35.63,0-64.62-28.99-64.62-64.62V325.12c0-35.63,28.99-64.62,64.62-64.62h584.77
		c35.63,0,64.62,28.99,64.62,64.62v464.77c0,35.63-28.99,64.62-64.62,64.62H688.12z"/>
	<path class="st1" d="M1272.88,266c15.71,0,30.54,6.17,41.74,17.37c11.2,11.2,17.37,26.03,17.37,41.74v464.77
		c0,15.71-6.17,30.54-17.37,41.74c-11.2,11.2-26.03,17.37-41.74,17.37H688.12c-15.71,0-30.54-6.17-41.74-17.37
		c-11.2-11.2-17.37-26.03-17.37-41.74V325.12c0-15.71,6.17-30.54,17.37-41.74c11.2-11.2,26.03-17.37,41.74-17.37H1272.88
		 M1272.88,255H688.12c-38.56,0-70.12,31.55-70.12,70.12v464.77c0,38.56,31.55,70.12,70.12,70.12h584.77
		c38.56,0,70.12-31.55,70.12-70.12V325.12C1343,286.55,1311.45,255,1272.88,255L1272.88,255z"/>
</g>
<g>
	<desc>Money Wallet Open Streamline Icon: https://streamlinehq.com</desc>
	<path class="st3" d="M1066.86,499.11v224.1c0.36,6.64-0.88,13.27-3.62,19.33c-2.73,6.06-6.88,11.38-12.1,15.5
		c-5.22,4.13-11.34,6.94-17.87,8.21c-6.53,1.27-13.26,0.95-19.64-0.93l-203.42-47.94c-14.83-4.1-27.98-12.8-37.55-24.86
		c-9.57-12.06-15.05-26.84-15.67-42.22V408.54l19.37-37.79v1.86l238.28,59.57c14.61,4.29,27.51,13.05,36.88,25.06
		C1060.89,469.25,1066.25,483.89,1066.86,499.11z"/>
	<path class="st4" d="M1183.05,403.18v200.5c-0.05,14.49-6.19,28.37-17.07,38.61c-10.89,10.24-25.63,16.02-41.03,16.07h-58.1V494.32
		c-0.65-15.46-6.44-30.33-16.55-42.53c-10.11-12.2-24.03-21.1-39.8-25.46l-257.19-60.51c5.42-5.48,11.99-9.85,19.29-12.83
		c7.3-2.98,15.17-4.51,23.13-4.49h329.23c15.41,0,30.19,5.76,41.08,16.02C1176.93,374.77,1183.05,388.68,1183.05,403.18z"/>
	<path class="st5" d="M911.92,406.6h193.67"/>
	<path class="st6" d="M982.58,630.82c9.82,0,19.25-3.9,26.2-10.85c6.95-6.95,10.85-16.37,10.85-26.2c0-9.83-3.9-19.25-10.85-26.2
		c-6.95-6.95-16.37-10.85-26.2-10.85c-9.82,0-19.25,3.9-26.2,10.85c-6.95,6.95-10.85,16.37-10.85,26.2c0,9.82,3.9,19.25,10.85,26.2
		C963.33,626.92,972.75,630.82,982.58,630.82z"/>
	<path class="st7" d="M982.58,586.57c7.18,0,14.22,2.09,20.23,6.01c6.02,3.92,10.77,9.51,13.67,16.09
		c2.49-5.64,3.53-11.81,3.03-17.95c-0.5-6.14-2.52-12.06-5.89-17.23c-3.37-5.16-7.97-9.4-13.39-12.34s-11.49-4.47-17.65-4.47
		c-6.16,0-12.23,1.54-17.65,4.47c-5.42,2.94-10.02,7.18-13.38,12.34c-3.37,5.16-5.39,11.08-5.89,17.23s0.54,12.32,3.03,17.95
		c2.9-6.57,7.65-12.16,13.67-16.09C968.36,588.66,975.39,586.57,982.58,586.57z"/>
	<path class="st5" d="M982.58,630.82c9.82,0,19.25-3.9,26.2-10.85c6.95-6.95,10.85-16.37,10.85-26.2c0-9.83-3.9-19.25-10.85-26.2
		c-6.95-6.95-16.37-10.85-26.2-10.85c-9.82,0-19.25,3.9-26.2,10.85c-6.95,6.95-10.85,16.37-10.85,26.2c0,9.82,3.9,19.25,10.85,26.2
		C963.33,626.92,972.75,630.82,982.58,630.82z"/>
	<path class="st5" d="M1066.86,503.43h38.73"/>
</g>
</svg>
